<svg xmlns="http://www.w3.org/2000/svg" id="Layer_1" viewBox="0 0 150 50">
  <style>
    .st2{enable-background:new}
  </style>
  <path id="shapePath2_1_" d="M0-.2h55.3v50H0v-50z" fill="navy"/>
  <path id="shapePath5_1_" d="M10.6 18.6c1.1-1.3 2.8-2 5.1-2 2.1 0 3.8.8 5.2 2.5 1.4 1.7 2.1 3.6 2.1 5.9 0 2.5-.7 4.5-2.1 6.1-1.4 1.7-3.1 2.5-5.3 2.5-2.3 0-4-.7-4.9-2l-.1 8.2H6.7V17.2h3.9v1.4m8.4 6.5c0-1.4-.4-2.6-1.2-3.6-.8-1-1.8-1.5-3.2-1.5-1.3 0-2.3.5-3.1 1.5s-1.3 2.2-1.3 3.5.5 2.5 1.3 3.6c.9 1 1.9 1.6 3.1 1.6 1.4 0 2.5-.5 3.2-1.5.8-.9 1.2-2.1 1.2-3.6m12.1 2.5l4.2-10.9h1.4l4.4 10.9 4-10.4h4.3l-7.5 16.3h-2l-3.7-10.2L32 33.5h-2l-7.3-16.3H27l4.1 10.4" fill="#fff"/>
  <g class="st2">
    <path d="M63.1 29.2v-10h1.6v10h-1.6zM73.8 29.2h-1.6v-4.6c0-.6-.1-1-.4-1.3s-.6-.4-1.1-.4c-.7 0-1.2.2-1.5.6s-.5 1.1-.5 2v3.8h-1.6v-7.6h1.3l.2 1h.1c.2-.4.6-.6 1-.8s.9-.3 1.4-.3c1.8 0 2.7.9 2.7 2.8v4.8zM82.7 29.2h-1.6v-4.6c0-.6-.1-1-.4-1.3-.2-.3-.6-.4-1.1-.4-.7 0-1.2.2-1.5.6s-.5 1.1-.5 2v3.8H76v-7.6h1.3l.2 1h.1c.2-.4.6-.6 1-.8.4-.2.9-.3 1.4-.3 1.8 0 2.7.9 2.7 2.8v4.8zM91.7 25.5c0 1.2-.3 2.2-1 2.9-.6.7-1.5 1-2.6 1-.7 0-1.3-.2-1.9-.5-.5-.3-1-.8-1.3-1.4s-.4-1.3-.4-2.1c0-1.2.3-2.2.9-2.9s1.5-1 2.7-1c1.1 0 2 .4 2.6 1.1.6.7 1 1.7 1 2.9zm-5.5 0c0 1.7.6 2.6 1.9 2.6s1.9-.9 1.9-2.6-.6-2.6-1.9-2.6c-.7 0-1.2.2-1.5.7-.3.4-.4 1-.4 1.9zM95.2 29.2l-2.9-7.6H94l1.5 4.4c.3.7.4 1.3.5 1.8h.1c0-.3.2-.9.5-1.8l1.5-4.4h1.7L97 29.2h-1.8zM105.7 29.2l-.3-1.1h-.1c-.4.5-.7.8-1.1.9-.4.2-.8.2-1.4.2-.7 0-1.3-.2-1.7-.6s-.6-1-.6-1.7c0-.8.3-1.4.9-1.8s1.5-.6 2.6-.6h1.3v-.4c0-.5-.1-.8-.3-1.1-.2-.2-.6-.4-1-.4s-.8.1-1.1.2-.7.2-1 .4l-.5-1.1c.4-.2.9-.4 1.3-.5.5-.1.9-.2 1.4-.2 1 0 1.7.2 2.2.6s.7 1.1.7 2v5.1h-1.3v.1zm-2.4-1c.6 0 1.1-.2 1.4-.5.4-.3.5-.8.5-1.4v-.7h-1c-.8 0-1.3.2-1.7.4-.3.2-.5.6-.5 1 0 .3.1.6.3.8.3.3.6.4 1 .4zM111.9 28.1c.4 0 .8-.1 1.2-.2v1.2c-.2.1-.4.1-.7.2-.3.1-.6.1-.9.1-1.5 0-2.3-.8-2.3-2.4v-4.1h-1v-.7l1.1-.6.5-1.6h1v1.7h2.2v1.2h-2.2v4c0 .4.1.7.3.9.3.2.5.3.8.3zM114.5 19.7c0-.3.1-.5.2-.7s.4-.2.7-.2c.3 0 .5.1.7.2s.2.4.2.7c0 .3-.1.5-.2.6-.2.2-.4.2-.7.2-.3 0-.5-.1-.7-.2-.1-.1-.2-.3-.2-.6zm1.7 9.5h-1.6v-7.6h1.6v7.6zM120.3 29.2l-2.9-7.6h1.7l1.5 4.4c.3.7.4 1.3.5 1.8h.1c0-.3.2-.9.5-1.8l1.5-4.4h1.7l-2.9 7.6h-1.7zM129.3 29.4c-1.2 0-2.1-.3-2.8-1-.7-.7-1-1.6-1-2.8 0-1.2.3-2.2.9-2.9s1.5-1.1 2.5-1.1 1.8.3 2.4.9c.6.6.9 1.4.9 2.5v.9h-5c0 .7.2 1.3.6 1.7.4.4.9.6 1.6.6.4 0 .9 0 1.2-.1.4-.1.8-.2 1.2-.4V29c-.4.2-.8.3-1.2.4-.3-.1-.8 0-1.3 0zm-.3-6.6c-.5 0-.9.2-1.2.5s-.5.8-.5 1.4h3.4c0-.6-.2-1.1-.5-1.4-.3-.4-.7-.5-1.2-.5z"/>
  </g>
  <g class="st2">
    <path d="M66.5 46h-1.6v-8.6H62V36h7.5v1.4h-2.9l-.1 8.6zM74.1 46.2c-1.2 0-2.1-.3-2.8-1-.7-.7-1-1.6-1-2.8s.3-2.2.9-2.9 1.5-1.1 2.5-1.1 1.8.3 2.4.9c.6.6.9 1.4.9 2.5v.9h-5c0 .7.2 1.3.6 1.7s.9.6 1.6.6c.4 0 .9 0 1.2-.1.4-.1.8-.2 1.2-.4v1.3c-.4.2-.8.3-1.2.4s-.7 0-1.3 0zm-.3-6.6c-.5 0-.9.2-1.2.5s-.5.8-.6 1.4h3.4c0-.6-.2-1.1-.5-1.4-.1-.4-.5-.5-1.1-.5zM82 46.2c-1.1 0-2-.3-2.6-1s-.9-1.6-.9-2.9c0-1.3.3-2.2.9-2.9s1.5-1 2.7-1c.8 0 1.5.1 2.2.4l-.5 1.3c-.7-.3-1.2-.4-1.7-.4-1.3 0-2 .9-2 2.6 0 .8.2 1.5.5 1.9s.8.6 1.4.6c.7 0 1.4-.2 2-.5v1.4c-.3.2-.6.3-.9.4-.3 0-.7.1-1.1.1zM92.5 46h-1.6v-4.6c0-.6-.1-1-.4-1.3-.2-.3-.6-.4-1.1-.4-.7 0-1.2.2-1.5.6-.3.4-.5 1.1-.5 2V46h-1.6V35.4h1.6v2.7c0 .4 0 .9-.1 1.4h.1c.2-.4.5-.6.9-.8s.8-.3 1.4-.3c1.8 0 2.7.9 2.7 2.8l.1 4.8zM101.4 46h-1.6v-4.6c0-.6-.1-1-.4-1.3-.2-.3-.6-.4-1.1-.4-.7 0-1.2.2-1.5.6s-.5 1.1-.5 2V46h-1.6v-7.6H96l.2 1h.1c.2-.4.6-.6 1-.8s.9-.3 1.4-.3c1.8 0 2.7.9 2.7 2.8V46zM110.3 42.2c0 1.2-.3 2.2-1 2.9-.6.7-1.5 1-2.6 1-.7 0-1.3-.2-1.9-.5-.5-.3-1-.8-1.3-1.4-.3-.6-.4-1.3-.4-2.1 0-1.2.3-2.2.9-2.9s1.5-1 2.7-1c1.1 0 2 .4 2.6 1.1.7.8 1 1.8 1 2.9zm-5.5 0c0 1.7.6 2.6 1.9 2.6s1.9-.9 1.9-2.6c0-1.7-.6-2.6-1.9-2.6-.7 0-1.2.2-1.5.7-.2.5-.4 1.1-.4 1.9zM113.8 46h-1.6V35.4h1.6V46zM122.8 42.2c0 1.2-.3 2.2-1 2.9-.6.7-1.5 1-2.6 1-.7 0-1.3-.2-1.9-.5-.5-.3-1-.8-1.3-1.4-.3-.6-.4-1.3-.4-2.1 0-1.2.3-2.2.9-2.9s1.5-1 2.7-1c1.1 0 2 .4 2.6 1.1.6.8 1 1.8 1 2.9zm-5.5 0c0 1.7.6 2.6 1.9 2.6s1.9-.9 1.9-2.6c0-1.7-.6-2.6-1.9-2.6-.7 0-1.2.2-1.5.7-.3.5-.4 1.1-.4 1.9zM131 38.5v.9l-1.3.2.3.6c.1.2.1.5.1.7 0 .8-.3 1.4-.8 1.8-.5.4-1.3.7-2.2.7-.2 0-.5 0-.7-.1-.3.2-.5.5-.5.8 0 .2.1.3.2.4.2.1.5.1.9.1h1.3c.8 0 1.5.2 1.9.5.4.4.6.9.6 1.5 0 .9-.4 1.5-1.1 2-.7.5-1.7.7-3.1.7-1 0-1.8-.2-2.4-.5-.5-.4-.8-.9-.8-1.6 0-.5.1-.9.4-1.2s.7-.5 1.2-.7c-.2-.1-.4-.2-.5-.4s-.2-.4-.2-.6c0-.3.1-.5.2-.7.2-.2.4-.4.7-.6-.4-.2-.7-.4-1-.8-.2-.4-.4-.8-.4-1.3 0-.8.3-1.5.8-1.9.5-.5 1.3-.7 2.2-.7h.7c.2 0 .4.1.5.1l3 .1zm-5.9 8.7c0 .3.2.6.5.8s.8.3 1.3.3c.9 0 1.5-.1 2-.4.4-.3.6-.6.6-1 0-.3-.1-.6-.4-.7-.2-.1-.7-.2-1.3-.2h-1.2c-.5 0-.8.1-1.1.3-.3.3-.4.6-.4.9zm.6-6.3c0 .5.1.8.4 1.1.2.3.6.4 1 .4.9 0 1.4-.5 1.4-1.5 0-.5-.1-.9-.3-1.1-.2-.3-.6-.4-1-.4-.5 0-.8.1-1.1.4s-.4.6-.4 1.1zM131.3 38.5h1.8l1.5 4.3c.2.6.4 1.2.5 1.7h.1c0-.3.1-.6.2-.9.1-.4.7-2.1 1.7-5.1h1.7l-3.2 8.6c-.6 1.6-1.6 2.4-2.9 2.4-.4 0-.7 0-1-.1V48c.2.1.5.1.8.1.8 0 1.3-.4 1.6-1.3l.3-.7-3.1-7.6z"/>
  </g>
</svg>
